<?xml version="1.0" encoding="UTF-8"?>
<svg version="1.1" xmlns="http://www.w3.org/2000/svg" width="720" height="720">
<path d="M0 0 C237.6 0 475.2 0 720 0 C720 237.6 720 475.2 720 720 C482.4 720 244.8 720 0 720 C0 482.4 0 244.8 0 0 Z " fill="#0D192A" transform="translate(0,0)"/>
<path d="M0 0 C3.38096282 0.0106632 6.7613879 0.00008988 10.14233398 -0.01269531 C27.07996258 -0.02496721 43.2994282 1.14921822 59.90600586 4.63574219 C60.97488037 4.85633301 62.04375488 5.07692383 63.14501953 5.30419922 C110.35826852 15.19976993 153.77383532 37.42635044 188.70776367 70.81738281 C189.73103169 71.79501057 190.75919613 72.76753443 191.79174805 73.73535156 C201.05365166 82.43985186 208.82065645 91.93765478 216.21850586 102.26074219 C216.66822754 102.88706543 217.11794922 103.51338867 217.58129883 104.15869141 C229.74631717 121.29842379 238.71115091 139.29316819 245.21850586 159.26074219 C245.49533203 160.08509766 245.7721582 160.90945312 246.05737305 161.75878906 C250.80356009 175.96872421 253.75776691 190.49504979 256.21850586 205.26074219 C256.39953857 206.33219482 256.58057129 207.40364746 256.76708984 208.50756836 C257.30949259 213.01722624 257.39889226 217.44163987 257.42163086 221.97949219 C257.42855453 222.90688202 257.43547821 223.83427185 257.44261169 224.7897644 C257.45986917 227.78013341 257.4662031 230.77032567 257.46850586 233.76074219 C257.46984528 234.77662415 257.47118469 235.7925061 257.4725647 236.83917236 C257.46834366 251.54906051 257.00787362 265.77895616 254.21850586 280.26074219 C253.95199955 281.76579473 253.68635422 283.27100002 253.42163086 284.77636719 C252.43448423 290.15956553 251.29166003 295.18277347 249.21850586 300.26074219 C248.89391084 301.64928755 248.60137112 303.04577092 248.34350586 304.44824219 C247.23900164 309.66012145 245.27786494 314.36404394 243.21850586 319.26074219 C242.63448144 320.78131027 242.05116181 322.30214921 241.46850586 323.82324219 C232.5565924 345.93031432 220.3103311 365.4641794 206.05834961 384.48730469 C199.7606028 392.94699322 194.04462326 401.58955474 188.71850586 410.69824219 C188.14310059 411.68058838 187.56769531 412.66293457 186.97485352 413.67504883 C181.38517675 423.4056829 176.98808554 433.27775707 173.53100586 443.94824219 C173.23645508 444.83318359 172.9419043 445.718125 172.63842773 446.62988281 C158.82914512 488.61630838 165.17576338 535.56397811 179.05053711 576.78417969 C180.33297362 580.60146564 181.43382255 584.44990052 182.53100586 588.32324219 C183.95570051 593.32703344 185.54233934 598.23849085 187.31225586 603.13183594 C187.67794678 604.14689209 188.0436377 605.16194824 188.42041016 606.20776367 C189.14334845 608.19508909 189.87858378 610.17799822 190.62792969 612.15551758 C192.80325363 618.13282494 193.7550807 622.89128314 193.21850586 629.26074219 C191.07049458 631.9870642 189.67585814 632.18289499 186.28100586 632.76074219 C183.12499684 632.24547541 181.5433722 631.5910202 179.43334961 629.17089844 C174.64966441 621.64928409 172.57746907 612.39215212 170.15722656 603.87915039 C168.94269758 599.62666213 167.61104026 595.4493188 166.13745117 591.2800293 C162.87645764 581.99882373 160.40314744 572.54944644 158.03100586 563.01074219 C157.86265228 562.33550507 157.69429871 561.66026794 157.52084351 560.96456909 C156.38820231 556.4038643 155.29393444 551.83528258 154.21850586 547.26074219 C153.80544189 545.52727539 153.80544189 545.52727539 153.3840332 543.75878906 C149.95473115 528.6999605 148.86401582 513.90485484 148.90283203 498.50488281 C148.90599533 495.89443218 148.88239933 493.28511696 148.85717773 490.67480469 C148.79483219 473.97403995 151.09979493 458.16727399 156.21850586 442.26074219 C156.5884668 441.0503125 156.95842773 439.83988281 157.33959961 438.59277344 C165.44787925 412.93870836 180.62803792 391.1419861 196.57788086 369.73339844 C225.10983942 331.32597161 241.69252552 286.96624143 241.47924805 239.00341797 C241.46849165 236.1319481 241.47923133 233.26109996 241.49194336 230.38964844 C241.50017972 219.82620968 240.99817533 209.69481167 239.21850586 199.26074219 C239.08847168 198.43622559 238.9584375 197.61170898 238.82446289 196.76220703 C233.07328824 162.02885783 217.76912501 128.98343281 195.51049805 101.84521484 C194.30456226 100.36627999 193.12377601 98.86693666 191.94506836 97.36621094 C183.18519478 86.31359066 173.27308552 76.9889103 162.21850586 68.26074219 C161.10862305 67.31521484 161.10862305 67.31521484 159.97631836 66.35058594 C133.08460091 43.69268559 98.91785385 29.79957185 65.21850586 21.26074219 C64.22181885 20.997854 63.22513184 20.73496582 62.19824219 20.46411133 C15.85591317 8.42515996 -36.74546751 13.43603064 -81.78149414 28.26074219 C-82.56572754 28.51436523 -83.34996094 28.76798828 -84.15795898 29.02929688 C-101.99735441 34.89986144 -119.42433531 43.46567333 -134.78149414 54.26074219 C-135.97155504 55.08241944 -137.16166047 55.9040322 -138.35180664 56.72558594 C-149.47283817 64.47601803 -159.86135638 73.0202876 -169.78149414 82.26074219 C-170.88944336 83.28748047 -170.88944336 83.28748047 -172.01977539 84.33496094 C-205.96836844 116.95696599 -226.48490922 168.45522064 -228.00805664 215.04199219 C-228.21828994 225.67121616 -227.64938598 235.81322899 -225.86010742 246.29077148 C-221.26993913 273.63426491 -233.72444697 295.16347168 -248.68774414 317.11083984 C-252.67889041 323.00420804 -256.39634053 329.05490898 -260.09399414 335.13574219 C-260.97414185 336.58025757 -260.97414185 336.58025757 -261.87207031 338.05395508 C-263.52354963 340.78095883 -265.1585275 343.51668404 -266.78149414 346.26074219 C-267.27439941 347.09250977 -267.76730469 347.92427734 -268.27514648 348.78125 C-268.7245459 349.56081055 -269.17394531 350.34037109 -269.63696289 351.14355469 C-270.02907959 351.82047363 -270.42119629 352.49739258 -270.82519531 353.19482422 C-271.93162522 355.58507439 -272.51584487 357.63808842 -272.78149414 360.26074219 C-269.35602634 364.74387434 -265.13878121 366.87321437 -260.15649414 369.19824219 C-258.73015138 369.89109785 -257.30437208 370.58511462 -255.87915039 371.28027344 C-255.18321777 371.61623535 -254.48728516 371.95219727 -253.77026367 372.29833984 C-238.58959131 379.64454786 -238.58959131 379.64454786 -234.78149414 387.26074219 C-234.06280594 397.47554002 -234.8455688 406.34724855 -238.00415039 416.08886719 C-238.84151974 419.50567078 -239.20725835 421.04619631 -237.78149414 424.26074219 C-234.87647107 426.55207914 -231.93767421 428.48473343 -228.79711914 430.42285156 C-225.67286532 432.47233625 -224.05169083 433.60961245 -222.59008789 437.13183594 C-222.84374041 441.27827812 -224.60251955 444.01809862 -226.84399414 447.38574219 C-228.35361452 449.66104202 -229.56982489 451.78977049 -230.78149414 454.26074219 C-229.96443417 457.93419068 -227.09315535 460.06063378 -224.40649414 462.57324219 C-218.68788233 468.16313926 -215.03525827 473.35070145 -214.61352539 481.51074219 C-214.58194594 487.57399632 -214.65619345 493.40010021 -215.78149414 499.38574219 C-217.45806678 508.47839528 -218.59336816 517.27272898 -213.32446289 525.33105469 C-207.48944904 532.62851505 -199.94958959 536.66472447 -190.78149414 538.26074219 C-178.84935801 539.05357515 -167.27407934 538.535694 -155.60180664 535.99511719 C-148.71143624 534.67058791 -141.78072057 534.46825775 -134.78149414 534.26074219 C-134.07395996 534.23351074 -133.36642578 534.2062793 -132.63745117 534.17822266 C-116.91771174 533.60613784 -104.31007714 536.95458679 -92.46899414 547.94824219 C-81.14300668 560.19064772 -77.0066544 576.37565597 -73.27856445 592.18017578 C-72.25934587 596.44627636 -71.16511846 600.69405061 -70.08789062 604.94580078 C-68.58503411 610.93092878 -67.62663545 616.2529221 -67.59399414 622.44824219 C-67.57981445 623.67929687 -67.56563477 624.91035156 -67.55102539 626.17871094 C-67.78149414 629.26074219 -67.78149414 629.26074219 -69.78149414 631.26074219 C-71.84008789 631.63183594 -71.84008789 631.63183594 -74.21899414 631.69824219 C-75.00145508 631.73820313 -75.78391602 631.77816406 -76.59008789 631.81933594 C-78.78149414 631.26074219 -78.78149414 631.26074219 -80.32202148 629.11157227 C-81.87605806 626.07602775 -82.61961877 623.42140429 -83.32446289 620.08886719 C-83.72193726 618.27370605 -83.72193726 618.27370605 -84.12744141 616.421875 C-84.26417267 615.78399048 -84.40090393 615.14610596 -84.54177856 614.4888916 C-86.87253109 603.69673653 -89.52171642 593.04616658 -92.84399414 582.51074219 C-93.14781006 581.51977539 -93.45162598 580.52880859 -93.76464844 579.5078125 C-97.04715726 569.39315536 -101.77000696 560.31902664 -110.78149414 554.26074219 C-113.44723339 552.94725976 -115.91039063 552.12207324 -118.78149414 551.26074219 C-119.35254883 551.07511719 -119.92360352 550.88949219 -120.51196289 550.69824219 C-123.94182945 550.03706309 -127.36507568 550.11396552 -130.84399414 550.13574219 C-131.59825684 550.13840088 -132.35251953 550.14105957 -133.12963867 550.14379883 C-143.60858255 550.13248954 -143.60858255 550.13248954 -153.78149414 552.26074219 C-161.91809376 553.27781714 -170.09163835 553.44315532 -178.28149414 553.44824219 C-179.31918945 553.46048828 -180.35688477 553.47273437 -181.42602539 553.48535156 C-191.59157462 553.50434076 -201.13827586 552.6937988 -210.21899414 547.88574219 C-211.91862305 547.00789062 -211.91862305 547.00789062 -213.65258789 546.11230469 C-223.50663145 540.28107292 -229.51744038 530.74467603 -233.78149414 520.26074219 C-235.7660995 512.38512471 -235.25604749 504.51263022 -233.28149414 496.69824219 C-230.71015524 486.79865051 -230.71015524 486.79865051 -232.88305664 477.11621094 C-234.41066331 475.04536446 -236.05284256 473.16640166 -237.78149414 471.26074219 C-239.04391291 469.6872927 -240.29389839 468.10378996 -241.53149414 466.51074219 C-242.10383789 465.79402344 -242.67618164 465.07730469 -243.26586914 464.33886719 C-247.09273721 459.09171818 -247.48991512 454.65677162 -246.78149414 448.26074219 C-245.84206928 446.2315845 -244.85551029 444.22198907 -243.78149414 442.26074219 C-243.78149414 439.04336759 -244.85014326 438.1883823 -247.09399414 435.82324219 C-247.98086914 434.97761719 -248.86774414 434.13199219 -249.78149414 433.26074219 C-253.57513023 428.83483342 -255.11503233 425.75615505 -255.08227539 419.82714844 C-254.69629387 416.53377368 -253.75701378 413.55359571 -252.78149414 410.38574219 C-250.05148991 401.90639037 -250.05148991 401.90639037 -250.78149414 393.26074219 C-255.15105059 388.8088707 -259.87685807 386.69895496 -265.59399414 384.38574219 C-272.42112435 381.47792869 -278.44850729 378.55703417 -283.78149414 373.26074219 C-284.32290039 372.75414062 -284.86430664 372.24753906 -285.42211914 371.72558594 C-289.27928321 367.41276787 -289.72337296 362.70924486 -289.41723633 357.06347656 C-288.7147911 352.86175351 -287.29197467 349.48535738 -285.34399414 345.74902344 C-284.98980911 345.05674652 -284.63562408 344.3644696 -284.27070618 343.6512146 C-280.72319447 336.87749778 -276.58858375 330.55339007 -272.25790405 324.26080322 C-270.03451328 321.02629213 -267.84835256 317.7666641 -265.65649414 314.51074219 C-265.22898361 313.87733917 -264.80147308 313.24393616 -264.36100769 312.59133911 C-255.86362785 299.98806814 -248.29280885 287.46483024 -242.78149414 273.26074219 C-242.20334961 271.81054688 -242.20334961 271.81054688 -241.61352539 270.33105469 C-240.56007157 266.44366173 -240.48871391 262.89282357 -240.53149414 258.88574219 C-240.51989258 257.81066406 -240.51989258 257.81066406 -240.50805664 256.71386719 C-240.52390684 252.32336279 -241.12720169 248.51210305 -242.27929688 244.28637695 C-252.95807238 201.21306615 -235.35618276 149.90345296 -213.87133789 113.23339844 C-204.58283031 97.82836867 -193.1665132 84.25361494 -180.78149414 71.26074219 C-180.02352539 70.46152344 -179.26555664 69.66230469 -178.48461914 68.83886719 C-172.95837372 63.15584885 -167.0349095 58.12540163 -160.78149414 53.26074219 C-159.9899292 52.6386084 -159.9899292 52.6386084 -159.18237305 52.00390625 C-141.65105809 38.31866832 -122.2873834 27.76743379 -101.78149414 19.26074219 C-100.99774414 18.93380371 -100.21399414 18.60686523 -99.40649414 18.27001953 C-79.58136692 10.14392394 -58.55494039 5.00571282 -37.28955078 2.59326172 C-35.57769496 2.36630293 -33.87257651 2.0833051 -32.17773438 1.75244141 C-21.51141548 -0.25523148 -10.81804743 -0.04052579 0 0 Z " fill="#91C8E5" transform="translate(367.781494140625,48.7392578125)"/>
<path d="M0 0 C3.5625 0.3125 3.5625 0.3125 5.19360352 1.46508789 C7.0411081 3.95841181 7.42574031 6.14144955 8.02734375 9.18359375 C8.38832153 10.98449463 8.38832153 10.98449463 8.7565918 12.82177734 C9.0019165 14.11809082 9.24724121 15.4144043 9.5 16.75 C9.76261709 18.09850115 10.02539592 19.4469708 10.28833008 20.79541016 C12.47778183 32.19118401 14.13413114 43.6470639 15.6953125 55.14453125 C16.54458346 61.34345932 17.65178397 67.45294808 18.8515625 73.59375 C21.17340008 85.7387466 22.84544247 97.99420569 24.47463989 110.2482605 C24.65570278 111.60560007 24.83896885 112.96264789 25.02462769 114.31936646 C26.1205571 122.36412459 26.8379468 130.19051312 26.5625 138.3125 C27.2225 138.3125 27.8825 138.3125 28.5625 138.3125 C28.82675781 137.07757813 29.09101563 135.84265625 29.36328125 134.5703125 C30.66083703 128.73188011 32.21525022 122.96713892 33.75 117.1875 C36.84410261 105.43614424 39.59208906 93.63218369 42.16479492 81.75732422 C46.34939483 62.69290031 46.34939483 62.69290031 50.5625 59.3125 C53.9375 58.75 53.9375 58.75 57.5625 59.3125 C61.59585182 63.38066544 63.68330963 67.34656773 65.45703125 72.79296875 C65.69411301 73.48763748 65.93119476 74.18230621 66.17546082 74.89802551 C66.66964326 76.35399916 67.15755608 77.8121148 67.6394043 79.2722168 C68.37786426 81.50867453 69.13541808 83.73794238 69.89648438 85.96679688 C70.37611568 87.38764471 70.85466999 88.80885665 71.33203125 90.23046875 C71.6694207 91.22895088 71.6694207 91.22895088 72.0136261 92.24760437 C72.94108587 95.0699827 73.5625 97.31875929 73.5625 100.3125 C74.49322327 100.30583817 75.42394653 100.29917633 76.38287354 100.29231262 C85.15241177 100.2315077 93.92190725 100.18653038 102.69160843 100.15706348 C107.20025669 100.14140498 111.70873481 100.12016338 116.21728516 100.08618164 C120.5679873 100.0535947 124.91852576 100.03564838 129.26934052 100.02786827 C130.92954841 100.02232356 132.58974731 100.0114961 134.24988556 99.99530983 C136.57466518 99.97354403 138.89876775 99.97053266 141.22363281 99.97192383 C141.9105571 99.961138 142.59748138 99.95035217 143.30522156 99.9392395 C146.34478083 99.95893147 148.32897267 100.17978818 150.99456787 101.69462585 C152.5625 103.3125 152.5625 103.3125 152.98828125 105.5390625 C152.95089844 106.33054687 152.91351562 107.12203125 152.875 107.9375 C152.85050781 108.73414063 152.82601563 109.53078125 152.80078125 110.3515625 C152.5625 112.3125 152.5625 112.3125 151.5625 113.3125 C148.85411914 113.40764592 146.17131487 113.43804932 143.46264648 113.42602539 C142.61393982 113.42617142 141.76523315 113.42631744 140.89080811 113.4264679 C138.07171109 113.42576848 135.25267929 113.41797478 132.43359375 113.41015625 C130.48446183 113.40829217 128.53532945 113.40686822 126.5861969 113.40586853 C121.44543168 113.40204255 116.30469453 113.39221159 111.16394043 113.38116455 C105.92244852 113.37095215 100.6809521 113.36637128 95.43945312 113.36132812 C85.14712306 113.35058939 74.85481386 113.33351201 64.5625 113.3125 C63.75536948 111.72197983 62.95096392 110.13007665 62.14770508 108.53759766 C61.47533562 107.20808578 61.47533562 107.20808578 60.78938293 105.85171509 C59.34531049 102.86299429 58.24381375 99.85298083 57.25 96.6875 C56.92386719 95.66398437 56.59773438 94.64046875 56.26171875 93.5859375 C56.03097656 92.83570313 55.80023438 92.08546875 55.5625 91.3125 C49.0475891 102.84123167 47.78739901 119.25664698 45.0625 132.125 C44.68124202 133.91476733 44.29973236 135.70448107 43.91796875 137.49414062 C43.53901949 139.27342834 43.16011303 141.05272517 42.78125 142.83203125 C42.59546387 143.70312531 42.40967773 144.57421936 42.21826172 145.47171021 C41.28943346 149.83950885 40.37730334 154.2097313 39.49609375 158.58740234 C39.23656921 159.86160286 39.23656921 159.86160286 38.97180176 161.1615448 C38.64885631 162.75053869 38.3309494 164.34056967 38.01940918 165.93183899 C36.99178742 170.96036145 35.58435179 175.5859953 33.5625 180.3125 C30.50556678 181.84096661 27.93265453 181.54492445 24.5625 181.3125 C21.3774643 179.55234869 20.72953028 178.81359084 19.5625 175.3125 C19.31572153 173.66836935 19.10395447 172.01885522 18.9140625 170.3671875 C18.79748291 169.38161865 18.68090332 168.3960498 18.56079102 167.38061523 C18.43760498 166.32688721 18.31441895 165.27315918 18.1875 164.1875 C17.06452514 154.91281418 15.69642447 145.74572925 13.98046875 136.56494141 C11.15132125 121.31861267 8.71724342 106.0249813 6.4921875 90.6796875 C4.55040271 77.19992095 4.55040271 77.19992095 2.0703125 63.8125 C1.15912557 59.32665667 0.36773121 54.81836828 -0.4375 50.3125 C-2.63240564 58.84305526 -4.13948517 67.34935278 -5.34692383 76.06738281 C-6.00323239 80.73177849 -6.83134085 85.2936961 -7.89086914 89.8828125 C-8.99598868 94.79489362 -9.92253964 99.74398597 -10.875 104.6875 C-11.09599365 105.82856201 -11.3169873 106.96962402 -11.54467773 108.14526367 C-12.84703526 114.95484212 -13.99969313 121.76524688 -15 128.625 C-16.10306094 136.14100146 -17.89841192 143.13345401 -20.4375 150.3125 C-24.0675 150.3125 -27.6975 150.3125 -31.4375 150.3125 C-33.49001539 145.02786268 -35.22831415 139.78713275 -36.6875 134.3125 C-39.01309281 125.74688683 -41.49210061 117.23073925 -44.02636719 108.72460938 C-45.7289657 102.95394065 -47.20372581 97.20179651 -48.4375 91.3125 C-49.0975 91.3125 -49.7575 91.3125 -50.4375 91.3125 C-50.71013672 92.16521484 -50.71013672 92.16521484 -50.98828125 93.03515625 C-55.72238894 107.57736398 -55.72238894 107.57736398 -60.4375 113.3125 C-63.56509113 114.04685116 -63.56509113 114.04685116 -67.32527161 114.02488708 C-68.36429557 114.0312938 -68.36429557 114.0312938 -69.42430991 114.03782994 C-71.74583547 114.04503379 -74.06474483 114.00952499 -76.38598633 113.97436523 C-78.05007112 113.97107549 -79.71416325 113.97052253 -81.37825012 113.97250366 C-84.96238999 113.9713589 -88.54578945 113.9517375 -92.12977028 113.91811943 C-97.79876 113.865987 -103.46720425 113.86044767 -109.13639832 113.86231995 C-123.219286 113.85954991 -137.30179003 113.79183013 -151.38446045 113.71801758 C-162.32504741 113.66159086 -173.26520718 113.6216333 -184.2059595 113.62886959 C-189.8395176 113.63072393 -195.47161146 113.5993806 -201.10487139 113.54275692 C-204.61359124 113.51453969 -208.12187045 113.51537699 -211.63067436 113.52410507 C-213.25486897 113.52222136 -214.87910186 113.50834451 -216.50307465 113.48143578 C-225.05375732 113.08694803 -225.05375732 113.08694803 -232.89191246 115.8537159 C-234.61802046 117.58359776 -235.99343229 119.34983384 -237.4375 121.3125 C-241.91470897 124.29730598 -246.18970659 123.90644796 -251.4375 123.3125 C-255.80245021 121.32843172 -258.53498242 118.75652183 -260.73828125 114.43359375 C-262.3855631 109.43653205 -262.66790322 103.94706567 -260.4140625 99.12109375 C-258.04260764 95.67889109 -255.57753723 92.86409874 -251.421875 91.79296875 C-245.88860445 91.06745251 -242.43528268 91.48356641 -237.4375 94.3125 C-236.69896286 95.16282806 -235.96042572 96.01315613 -235.19950867 96.88925171 C-230.00430848 101.23741103 -222.34415852 100.00513739 -215.93286133 99.95947266 C-214.34079489 99.96625176 -212.74873629 99.97515654 -211.1566925 99.98602295 C-206.84273811 100.00878291 -202.52938273 99.99999532 -198.2154181 99.98412752 C-193.70045513 99.97145793 -189.18554301 99.98321096 -184.670578 99.99105835 C-177.09222205 100.00014904 -169.51410994 99.98817937 -161.93579102 99.96435547 C-153.16957666 99.93711577 -144.40394322 99.94598115 -135.63774282 99.9734875 C-128.11147195 99.99615907 -120.58537618 99.99938914 -113.05908221 99.98629415 C-108.56363722 99.97849263 -104.06846561 99.97747774 -99.5730381 99.99397659 C-95.34977997 100.0083949 -91.12727333 99.99844892 -86.9040966 99.96950531 C-85.35247167 99.96288149 -83.80078371 99.96481432 -82.24918365 99.97581863 C-80.13460737 99.98943596 -78.02245592 99.97241177 -75.90803528 99.94741821 C-74.72394986 99.94553308 -73.53986444 99.94364796 -72.31989765 99.9417057 C-69.26245936 99.59361634 -69.26245936 99.59361634 -67.6109724 97.00011253 C-66.13255357 93.61407893 -65.0276566 90.16675254 -64 86.625 C-58.54076312 68.58587189 -58.54076312 68.58587189 -53.4375 63.3125 C-50.52694799 61.857224 -48.65658202 61.86182852 -45.4375 62.3125 C-42.10279945 66.49045816 -40.389554 70.79744323 -38.9375 75.875 C-38.72810791 76.57536377 -38.51871582 77.27572754 -38.30297852 77.99731445 C-37.87669285 79.42382527 -37.45420412 80.85147659 -37.03564453 82.28027344 C-36.17752021 85.19579462 -35.27546696 88.09731828 -34.375 91 C-33.90126953 92.55460937 -33.90126953 92.55460937 -33.41796875 94.140625 C-32.73036649 96.36505939 -32.02288973 98.58340158 -31.30078125 100.796875 C-30.93339844 101.93640625 -30.56601562 103.0759375 -30.1875 104.25 C-29.85234375 105.26964844 -29.5171875 106.28929687 -29.171875 107.33984375 C-28.40557089 110.44174497 -28.30471361 113.13036903 -28.4375 116.3125 C-27.7775 116.3125 -27.1175 116.3125 -26.4375 116.3125 C-26.46690674 115.17369385 -26.49631348 114.0348877 -26.52661133 112.86157227 C-26.52291691 108.29708542 -25.85283889 104.00338552 -25.01171875 99.52734375 C-24.86346146 98.70859268 -24.71520416 97.88984161 -24.56245422 97.04627991 C-24.08984275 94.44627563 -23.60745592 91.84819337 -23.125 89.25 C-22.81253727 87.5346169 -22.50068363 85.81912273 -22.18945312 84.10351562 C-20.5710325 75.22416181 -18.85941296 66.36908107 -17.06958008 57.52270508 C-16.26258508 53.424143 -15.58063992 49.31431446 -14.9375 45.1875 C-13.92857054 38.92706604 -12.68947002 32.78199443 -11.19140625 26.6171875 C-10.14556449 22.03282414 -9.31959089 17.41323185 -8.52734375 12.77880859 C-6.35998513 0.57818047 -6.35998513 0.57818047 0 0 Z " fill="#D77A64" transform="translate(436.4375,170.6875)"/>
<path d="M0 0 C1.2065625 0.0309375 1.2065625 0.0309375 2.4375 0.0625 C2.78941406 1.05507813 3.14132812 2.04765625 3.50390625 3.0703125 C13.24921999 30.09856662 28.55828151 52.48465119 55.125 65 C61.0519179 67.69419327 67.07733613 69.67410664 73.4375 71.0625 C73.4375 73.0425 73.4375 75.0225 73.4375 77.0625 C72.30054688 77.4028125 71.16359375 77.743125 69.9921875 78.09375 C44.82629839 85.88364822 25.1908568 100.56668914 12.4375 124.0625 C8.44889344 131.82368027 4.93572398 139.68610194 2.4375 148.0625 C0.7875 148.0625 -0.8625 148.0625 -2.5625 148.0625 C-2.99820313 146.90234375 -3.43390625 145.7421875 -3.8828125 144.546875 C-8.75386136 131.70664695 -13.53282309 119.60658813 -22.5625 109.0625 C-23.24957031 108.23105469 -23.93664062 107.39960937 -24.64453125 106.54296875 C-28.73772336 101.43554299 -28.73772336 101.43554299 -34.5625 99.0625 C-35.04286217 95.72933783 -35.52156904 92.39593987 -36 89.0625 C-36.13470703 88.12792969 -36.26941406 87.19335938 -36.40820312 86.23046875 C-36.67488048 84.37023158 -36.93847748 82.50955018 -37.19897461 80.6484375 C-37.4180622 79.08995813 -37.64347853 77.53232331 -37.88110352 75.9765625 C-38.69184544 70.33661869 -38.67601135 64.752228 -38.625 59.0625 C-38.62048828 58.09699219 -38.61597656 57.13148438 -38.61132812 56.13671875 C-38.59965417 53.77857911 -38.58328021 51.42057398 -38.5625 49.0625 C-37.9025 50.3825 -37.2425 51.7025 -36.5625 53.0625 C-20.69320023 39.42188361 -9.80305538 23.72192886 -4.25390625 3.44140625 C-3.27692401 0.07992498 -3.27692401 0.07992498 0 0 Z " fill="#545C68" transform="translate(570.5625,486.9375)"/>
<path d="M0 0 C1.67060276 0.65674093 3.33625834 1.32606683 5 2 C5.98170166 2.3906665 6.96340332 2.78133301 7.97485352 3.18383789 C12.84250017 5.50829966 16.20986327 7.30770526 18.54638672 12.31201172 C19.58541327 16.34657923 20.31194141 20.32425645 20.9375 24.4375 C21.19950032 25.89571557 21.46760136 27.35284779 21.74169922 28.80883789 C22.14513342 30.95290711 22.54577012 33.09679627 22.9274292 35.24485779 C23.82373816 40.27744855 24.98512499 45.09980471 26.625 49.9375 C28.31410309 54.95561208 29.87006208 59.97032002 31.3125 65.0625 C32.73719465 70.06629125 34.32383348 74.97774867 36.09375 79.87109375 C36.45944092 80.8861499 36.82513184 81.90120605 37.2019043 82.94702148 C37.92484259 84.93434691 38.66007792 86.91725603 39.40942383 88.89477539 C41.58474777 94.87208275 42.53657485 99.63054096 42 106 C39.85198872 108.72632201 38.45735228 108.9221528 35.0625 109.5 C31.90649098 108.98473322 30.32486635 108.33027801 28.21484375 105.91015625 C23.43115855 98.3885419 21.35896321 89.13140993 18.9387207 80.6184082 C17.72419172 76.36591995 16.3925344 72.18857662 14.91894531 68.01928711 C11.65795178 58.73808155 9.18464158 49.28870426 6.8125 39.75 C6.64414642 39.07476288 6.47579285 38.39952576 6.30233765 37.7038269 C-0.61325119 9.85744506 -0.61325119 9.85744506 0 0 Z " fill="#7CB2DD" transform="translate(519,572)"/>
<path d="M0 0 C1.30130859 -0.01836914 1.30130859 -0.01836914 2.62890625 -0.03710938 C3.46292969 -0.03904297 4.29695313 -0.04097656 5.15625 -0.04296875 C5.91744141 -0.04707764 6.67863281 -0.05118652 7.46289062 -0.05541992 C9.5 0.1875 9.5 0.1875 12.5 2.1875 C15.04493815 8.78386266 14.12468157 18.39337707 12.5 25.1875 C9.5 27.1875 9.5 27.1875 2.5 27.1875 C2.5 33.4575 2.5 39.7275 2.5 46.1875 C5.965 46.6825 5.965 46.6825 9.5 47.1875 C12.4375 48.25 12.4375 48.25 14.5 49.1875 C14.58144943 51.89644767 14.64070614 54.60291263 14.6875 57.3125 C14.71263672 58.07304687 14.73777344 58.83359375 14.76367188 59.6171875 C14.82790921 64.58487498 14.18477251 67.84587795 11.5 72.1875 C9.81483046 73.87266954 7.71232212 73.31758019 5.40625 73.3203125 C4.37628906 73.32160156 3.34632813 73.32289063 2.28515625 73.32421875 C0.65900391 73.31841797 0.65900391 73.31841797 -1 73.3125 C-2.08410156 73.31636719 -3.16820312 73.32023437 -4.28515625 73.32421875 C-5.31511719 73.32292969 -6.34507812 73.32164062 -7.40625 73.3203125 C-8.35822266 73.31918457 -9.31019531 73.31805664 -10.29101562 73.31689453 C-12.5 73.1875 -12.5 73.1875 -13.5 72.1875 C-13.58726223 70.40678754 -13.60699041 68.6226686 -13.59765625 66.83984375 C-13.59443359 65.76025391 -13.59121094 64.68066406 -13.58789062 63.56835938 C-13.57951172 62.43205078 -13.57113281 61.29574219 -13.5625 60.125 C-13.55798828 58.98482422 -13.55347656 57.84464844 -13.54882812 56.66992188 C-13.5369976 53.84242582 -13.5190615 51.01495655 -13.5 48.1875 C-10.2 46.8675 -6.9 45.5475 -3.5 44.1875 C-3.5 38.5775 -3.5 32.9675 -3.5 27.1875 C-5.81 27.1875 -8.12 27.1875 -10.5 27.1875 C-12.9140625 25.71484375 -12.9140625 25.71484375 -14.5 23.1875 C-14.84684311 20.22757617 -14.97049824 17.69285365 -14.875 14.75 C-14.87371094 13.99912109 -14.87242187 13.24824219 -14.87109375 12.47460938 C-14.80594298 8.35925236 -14.59795533 4.84132153 -12.5 1.1875 C-8.32171361 -0.20526213 -4.37575966 0.00325094 0 0 Z " fill="#D57964" transform="translate(429.5,352.8125)"/>
<path d="M0 0 C8.58 0 17.16 0 26 0 C26 8.25 26 16.5 26 25 C22.78548731 26.60725635 19.56387464 26.05748185 16 26 C16.16265854 26.66940109 16.32531708 27.33880219 16.49290466 28.02848816 C17.09432453 31.55272933 17.13201296 34.98230312 17.11352539 38.54418945 C17.11367142 39.28619095 17.11381744 40.02819244 17.1139679 40.79267883 C17.11327404 43.2329099 17.1055064 45.6730636 17.09765625 48.11328125 C17.0957902 49.81007343 17.09436718 51.50686615 17.09336853 53.20365906 C17.0895581 57.6604665 17.07974043 62.11724113 17.06866455 66.57403564 C17.0584187 71.12552446 17.05386412 75.67701859 17.04882812 80.22851562 C17.03811681 89.15235813 17.02105813 98.07617633 17 107 C13.535 107.495 13.535 107.495 10 108 C9.93046441 98.04684551 9.87717063 88.09374889 9.84456348 78.14040089 C9.82891303 73.51856209 9.80768607 68.89688958 9.77368164 64.27514648 C9.74106608 59.81421463 9.72314232 55.35344264 9.71536827 50.89240074 C9.70982871 49.19115368 9.69901124 47.48991528 9.68280983 45.78873634 C9.66100609 43.40429456 9.65803426 41.0205119 9.65942383 38.63598633 C9.648638 37.93395584 9.63785217 37.23192535 9.6267395 36.50862122 C9.65410256 32.16420961 10.43432716 29.50961509 13 26 C12.31292969 26.02320313 11.62585938 26.04640625 10.91796875 26.0703125 C9.56638672 26.09738281 9.56638672 26.09738281 8.1875 26.125 C7.29417969 26.14820313 6.40085938 26.17140625 5.48046875 26.1953125 C3 26 3 26 0 24 C-0.34057617 21.56982422 -0.34057617 21.56982422 -0.29296875 18.5546875 C-0.28547607 17.58515137 -0.2779834 16.61561523 -0.27026367 15.61669922 C-0.24295166 14.38193848 -0.21563965 13.14717773 -0.1875 11.875 C-0.125625 7.95625 -0.06375 4.0375 0 0 Z " fill="#A7D4DB" transform="translate(222,145)"/>
<path d="M0 0 C1.94326172 -0.02126953 1.94326172 -0.02126953 3.92578125 -0.04296875 C7.5537588 0.17930609 10.3207728 0.86690778 13.6875 2.1875 C15.13375559 8.8764321 15.84593567 16.56209263 13.75 23.1875 C10.85295619 27.4013819 7.5409136 28.11913852 2.6875 29.1875 C3.01492188 30.11691406 3.34234375 31.04632813 3.6796875 32.00390625 C5.10909057 37.006817 4.90424356 41.9626602 4.8125 47.125 C4.80347656 48.09501953 4.79445313 49.06503906 4.78515625 50.06445312 C4.76176107 52.43906407 4.72898176 54.81314776 4.6875 57.1875 C2.0475 57.1875 -0.5925 57.1875 -3.3125 57.1875 C-3.3125 47.9475 -3.3125 38.7075 -3.3125 29.1875 C-5.2925 28.5275 -7.2725 27.8675 -9.3125 27.1875 C-12.3125 25.1875 -12.3125 25.1875 -13.3125 22.1875 C-13.4607833 19.3615624 -13.54351438 16.57648351 -13.5625 13.75 C-13.583125 12.98623047 -13.60375 12.22246094 -13.625 11.43554688 C-13.64888785 8.00465422 -13.62954492 5.77776305 -11.984375 2.71484375 C-8.48799177 -0.47928205 -4.49858848 0.02224821 0 0 Z " fill="#D47964" transform="translate(529.3125,186.8125)"/>
<path d="M0 0 C1.40282227 -0.00193359 1.40282227 -0.00193359 2.83398438 -0.00390625 C4.3102832 0.00189453 4.3102832 0.00189453 5.81640625 0.0078125 C6.79673828 0.00394531 7.77707031 0.00007813 8.78710938 -0.00390625 C9.72361328 -0.00261719 10.66011719 -0.00132813 11.625 0 C12.91942017 0.00169189 12.91942017 0.00169189 14.23999023 0.00341797 C16.37890625 0.1328125 16.37890625 0.1328125 18.37890625 1.1328125 C19.45256278 5.65995024 19.54316966 10.11978846 19.56640625 14.7578125 C19.58058594 16.04945312 19.59476562 17.34109375 19.609375 18.671875 C19.26473614 23.84729926 19.26473614 23.84729926 17.37890625 26.1328125 C14.99609375 26.7421875 14.99609375 26.7421875 12.25390625 26.8828125 C11.34382813 26.93953125 10.43375 26.99625 9.49609375 27.0546875 C8.79742187 27.08046875 8.09875 27.10625 7.37890625 27.1328125 C7.54116699 27.84920898 7.70342773 28.56560547 7.87060547 29.30371094 C8.36782809 32.07115366 8.50815676 34.59056823 8.51171875 37.3984375 C8.51365234 38.85636719 8.51365234 38.85636719 8.515625 40.34375 C8.51175781 41.34664062 8.50789063 42.34953125 8.50390625 43.3828125 C8.50970703 44.91035156 8.50970703 44.91035156 8.515625 46.46875 C8.51433594 47.43554688 8.51304687 48.40234375 8.51171875 49.3984375 C8.51059082 50.28305664 8.50946289 51.16767578 8.50830078 52.07910156 C8.37890625 54.1328125 8.37890625 54.1328125 7.37890625 55.1328125 C5.7127351 55.17345082 4.0450253 55.1755335 2.37890625 55.1328125 C2.194396 36.31276694 2.194396 36.31276694 3.37890625 27.1328125 C2.76402344 27.09542969 2.14914062 27.05804688 1.515625 27.01953125 C0.70738281 26.95378906 -0.10085938 26.88804688 -0.93359375 26.8203125 C-1.73410156 26.76230469 -2.53460938 26.70429687 -3.359375 26.64453125 C-6.16380285 26.01002339 -7.05763395 25.55989771 -8.62109375 23.1328125 C-9.52700698 15.56577255 -9.59449472 7.80812613 -5.62109375 1.1328125 C-4.00423301 -0.48404824 -2.23033225 0.00291901 0 0 Z " fill="#CEB29F" transform="translate(430.62109375,98.8671875)"/>
<path d="M0 0 C3 1 3 1 5 4 C4.62405734 8.06018078 3.84562045 12.01350357 3 16 C4.051875 16.12375 5.10375 16.2475 6.1875 16.375 C10 17 10 17 15 19 C15 26.59 15 34.18 15 42 C9.69596778 44.12161289 6.02161381 44.43195292 0.4375 44.5 C-0.41263672 44.54125 -1.26277344 44.5825 -2.13867188 44.625 C-6.50776192 44.6798278 -8.31639506 44.65546877 -11.5625 41.54296875 C-13.35981607 37.11317073 -13.55639846 33.54159022 -13.4375 28.8125 C-13.44458984 28.00619141 -13.45167969 27.19988281 -13.45898438 26.36914062 C-13.39540684 20.48577373 -13.39540684 20.48577373 -11.60058594 18.28076172 C-8.74669876 15.9971296 -5.56156418 16.29193149 -2 16 C-1.93941406 14.92878906 -1.87882812 13.85757813 -1.81640625 12.75390625 C-1.73201463 11.35675609 -1.64736594 9.95962143 -1.5625 8.5625 C-1.50352539 7.50192383 -1.50352539 7.50192383 -1.44335938 6.41992188 C-1.11328125 1.11328125 -1.11328125 1.11328125 0 0 Z " fill="#D0B4A0" transform="translate(371,172)"/>
<path d="M0 0 C1.19109375 -0.00386719 1.19109375 -0.00386719 2.40625 -0.0078125 C7.11678053 0.07069634 10.17892301 0.4573897 14 3.5 C14.56762695 5.9519043 14.56762695 5.9519043 14.48828125 8.82421875 C14.47216797 9.85224609 14.45605469 10.88027344 14.43945312 11.93945312 C14.39755859 13.01130859 14.35566406 14.08316406 14.3125 15.1875 C14.28994141 16.27095703 14.26738281 17.35441406 14.24414062 18.47070312 C14.1851579 21.14851905 14.10290307 23.82357027 14 26.5 C11.24921116 27.41692961 9.64051087 27.60886083 6.8125 27.5625 C4.9253125 27.5315625 4.9253125 27.5315625 3 27.5 C3 32.45 3 37.4 3 42.5 C1.35 42.5 -0.3 42.5 -2 42.5 C-2 37.88 -2 33.26 -2 28.5 C-4.5390625 28.109375 -7.078125 27.71875 -9.6171875 27.328125 C-12 26.5 -12 26.5 -13.29296875 24.94921875 C-14.33537808 21.33822069 -14.40885007 17.79017371 -14.4375 14.0625 C-14.47037109 13.31162109 -14.50324219 12.56074219 -14.53710938 11.78710938 C-14.57565455 7.80293969 -14.26762713 5.90915559 -12.03515625 2.49609375 C-7.91031356 -0.21664063 -4.82821407 -0.17243622 0 0 Z " fill="#A8D5DC" transform="translate(372,97.5)"/>
<path d="M0 0 C2.125 0.375 2.125 0.375 4 1 C4.6875 2.8125 4.6875 2.8125 5 5 C3.5625 6.75 3.5625 6.75 2 8 C3.45317587 11.3907437 5.16082541 13.63402118 8 16 C11.05429073 17.21284876 11.05429073 17.21284876 14 18 C14.66 18.33 15.32 18.66 16 19 C16.0544207 21.68777802 16.09387266 24.37443212 16.125 27.0625 C16.14175781 27.81466797 16.15851563 28.56683594 16.17578125 29.34179688 C16.21865121 34.29327709 15.58399375 38.30414451 14 43 C10.417094 43.14533755 6.83494583 43.23407931 3.25 43.3125 C1.72632813 43.3753418 1.72632813 43.3753418 0.171875 43.43945312 C-7.1831118 43.5604233 -7.1831118 43.5604233 -10.6875 41.15625 C-12.63173758 36.48082153 -12.42480803 32.19306082 -12.25 27.1875 C-12.23195313 26.20845703 -12.21390625 25.22941406 -12.1953125 24.22070312 C-12.14832887 21.81279229 -12.08265694 19.40690665 -12 17 C-11.06027344 16.80083984 -11.06027344 16.80083984 -10.1015625 16.59765625 C-9.28429687 16.42105469 -8.46703125 16.24445313 -7.625 16.0625 C-6.81289063 15.88847656 -6.00078125 15.71445312 -5.1640625 15.53515625 C-2.970537 15.07669307 -2.970537 15.07669307 -1 14 C-1.165 13.319375 -1.33 12.63875 -1.5 11.9375 C-2.07713342 8.54684118 -2.19434889 5.43349708 -2 2 C-1.34 1.34 -0.68 0.68 0 0 Z " fill="#D57964" transform="translate(483,383)"/>
<path d="M0 0 C0.86302734 -0.00708984 1.72605469 -0.01417969 2.61523438 -0.02148438 C8.95549029 0.04255861 8.95549029 0.04255861 11.16479492 1.8527832 C15.06319983 6.70690679 13.81330296 14.61255415 13.4375 20.4375 C12.4375 24.1875 12.4375 24.1875 10.4375 26.4375 C6.4775 26.9325 6.4775 26.9325 2.4375 27.4375 C2.4375 33.3775 2.4375 39.3175 2.4375 45.4375 C-0.5325 45.9325 -0.5325 45.9325 -3.5625 46.4375 C-3.5625 40.1675 -3.5625 33.8975 -3.5625 27.4375 C-6.2025 27.1075 -8.8425 26.7775 -11.5625 26.4375 C-14.33272203 22.28216695 -13.93020597 18.88335149 -13.9375 14 C-13.96199219 13.14083984 -13.98648438 12.28167969 -14.01171875 11.39648438 C-14.0290272 7.67805342 -13.95971766 5.15358006 -12.13671875 1.8671875 C-8.1684715 -0.33672524 -4.46163043 -0.10375885 0 0 Z " fill="#CF7967" transform="translate(530.5625,305.5625)"/>
<path d="M0 0 C0.69544922 -0.00386719 1.39089844 -0.00773438 2.10742188 -0.01171875 C6.5839799 -0.00335916 10.90814725 0.23169097 15.3125 1.125 C17.02716036 4.55432071 16.36654056 8.34216065 16.3125 12.125 C19.9425 12.125 23.5725 12.125 27.3125 12.125 C27.8075 14.105 27.8075 14.105 28.3125 16.125 C24.6825 16.125 21.0525 16.125 17.3125 16.125 C16.6525 19.755 15.9925 23.385 15.3125 27.125 C10.59456908 28.04196463 5.98154869 28.33942264 1.1875 28.375 C0.48496094 28.395625 -0.21757812 28.41625 -0.94140625 28.4375 C-4.09660927 28.46135787 -6.32367124 28.32387745 -9.1171875 26.796875 C-12.45248355 23.24586329 -11.87088098 18.8221111 -11.875 14.25 C-11.88724609 13.54230469 -11.89949219 12.83460938 -11.91210938 12.10546875 C-11.92353787 8.01406779 -11.65210634 4.75090503 -9.6875 1.125 C-6.60622742 -0.41563629 -3.37728658 -0.01827206 0 0 Z " fill="#A8D5DC" transform="translate(268.6875,187.875)"/>
<path d="M0 0 C0.93457031 0.00966797 1.86914062 0.01933594 2.83203125 0.02929688 C3.80011719 0.05443359 4.76820313 0.07957031 5.765625 0.10546875 C7.24095703 0.12577148 7.24095703 0.12577148 8.74609375 0.14648438 C11.16982915 0.18178149 13.59244645 0.23108821 16.015625 0.29296875 C19.10200002 7.78845094 20.79829284 15.39395879 18.37109375 23.42578125 C17.47216285 25.2590689 16.46547735 26.8431164 15.015625 28.29296875 C13.38089618 28.37997217 11.74248445 28.39997938 10.10546875 28.390625 C9.11611328 28.38740234 8.12675781 28.38417969 7.10742188 28.38085938 C6.06650391 28.37248047 5.02558594 28.36410156 3.953125 28.35546875 C2.90833984 28.35095703 1.86355469 28.34644531 0.78710938 28.34179688 C-1.8034416 28.32996788 -4.39388059 28.31348564 -6.984375 28.29296875 C-9.27944482 23.12934781 -9.3513789 18.74124916 -9.359375 13.16796875 C-9.38386719 12.26175781 -9.40835937 11.35554688 -9.43359375 10.421875 C-9.43746094 9.55175781 -9.44132812 8.68164062 -9.4453125 7.78515625 C-9.45763916 6.59962158 -9.45763916 6.59962158 -9.47021484 5.39013672 C-8.984375 3.29296875 -8.984375 3.29296875 -7.26708984 1.53051758 C-4.60417168 0.08684569 -3.01278842 -0.05511198 0 0 Z " fill="#7CB2DD" transform="translate(310.984375,305.70703125)"/>
<path d="M0 0 C0.08144943 2.70894767 0.14070614 5.41541263 0.1875 8.125 C0.21263672 8.88554687 0.23777344 9.64609375 0.26367188 10.4296875 C0.32790921 15.39737498 -0.31522749 18.65837795 -3 23 C-4.68516954 24.68516954 -6.78767788 24.13008019 -9.09375 24.1328125 C-10.12371094 24.13410156 -11.15367187 24.13539063 -12.21484375 24.13671875 C-13.84099609 24.13091797 -13.84099609 24.13091797 -15.5 24.125 C-16.58410156 24.12886719 -17.66820312 24.13273437 -18.78515625 24.13671875 C-19.81511719 24.13542969 -20.84507812 24.13414062 -21.90625 24.1328125 C-22.85822266 24.13168457 -23.81019531 24.13055664 -24.79101562 24.12939453 C-27 24 -27 24 -28 23 C-28.08726223 21.21928754 -28.10699041 19.4351686 -28.09765625 17.65234375 C-28.09443359 16.57275391 -28.09121094 15.49316406 -28.08789062 14.38085938 C-28.07951172 13.24455078 -28.07113281 12.10824219 -28.0625 10.9375 C-28.05798828 9.79732422 -28.05347656 8.65714844 -28.04882812 7.48242188 C-28.03699747 4.65489649 -28.0205141 1.8274736 -28 -1 C-17.56950259 -5.74342283 -10.65277965 -4.03760176 0 0 Z " fill="#B79996" transform="translate(444,402)"/>
<path d="M0 0 C5.21586397 2.48641544 5.21586397 2.48641544 6.5546875 5.1640625 C6.79268455 8.4920212 6.73987115 11.82852337 6.7421875 15.1640625 C6.75443359 16.0921875 6.76667969 17.0203125 6.77929688 17.9765625 C6.78219727 19.306875 6.78219727 19.306875 6.78515625 20.6640625 C6.78926514 21.47875 6.79337402 22.2934375 6.79760742 23.1328125 C6.5546875 25.1640625 6.5546875 25.1640625 4.5546875 27.1640625 C0.74014464 27.61827087 -3.10683764 27.48811026 -6.9453125 27.4765625 C-8.55212891 27.50073242 -8.55212891 27.50073242 -10.19140625 27.52539062 C-11.21363281 27.52603516 -12.23585938 27.52667969 -13.2890625 27.52734375 C-14.22943359 27.53032471 -15.16980469 27.53330566 -16.13867188 27.53637695 C-17.28045898 27.3520813 -17.28045898 27.3520813 -18.4453125 27.1640625 C-22.94187236 20.41922271 -21.55248895 10.97603496 -21.4453125 3.1640625 C-14.53183294 -1.01011384 -7.89280259 -2.69817852 0 0 Z " fill="#7CB2DE" transform="translate(379.4453125,352.8359375)"/>
<path d="M0 0 C0.69480469 -0.01998047 1.38960938 -0.03996094 2.10546875 -0.06054688 C7.23640722 -0.05571548 10.26593377 1.07999437 14.125 4.4375 C15.71350731 7.78780632 15.32847401 11.77745575 15.375 15.4375 C15.40078125 16.654375 15.4265625 17.87125 15.453125 19.125 C15.09858382 22.7041776 14.71971941 24.00072003 12.125 26.4375 C8.17999236 28.58807708 4.57222282 28.76457734 0.125 28.8125 C-1.07125 28.84085938 -2.2675 28.86921875 -3.5 28.8984375 C-7.4777632 28.35517817 -9.06485322 27.24764678 -11.875 24.4375 C-14.73600948 18.57924248 -14.51203192 12.30414362 -13.125 6.0625 C-10.31026057 0.1515472 -6.06316683 -0.06118792 0 0 Z " fill="#D1B49F" transform="translate(314.875,187.5625)"/>
<path d="M0 0 C0.90685547 -0.01546875 1.81371094 -0.0309375 2.74804688 -0.046875 C6.53249503 -0.02459716 9.29119471 0.0987829 12.67578125 1.859375 C14.93740433 6.166015 14.47783698 10.47430486 14.3125 15.25 C14.29445312 16.23355469 14.27640625 17.21710938 14.2578125 18.23046875 C14.21074126 20.65463783 14.14500742 23.07682059 14.0625 25.5 C8.99632844 28.54453553 5.10773564 28.964033 -0.625 28.875 C-1.38361328 28.88660156 -2.14222656 28.89820313 -2.92382812 28.91015625 C-8.40412479 28.88113438 -8.40412479 28.88113438 -10.89453125 27.1015625 C-13.61410465 22.92543855 -13.15873426 18.98640945 -13.1875 14.125 C-13.208125 13.26132813 -13.22875 12.39765625 -13.25 11.5078125 C-13.27123207 8.06821673 -13.17808764 5.19129549 -12.04296875 1.9296875 C-8.37581815 -0.56043703 -4.31322689 -0.07326075 0 0 Z " fill="#A8D5DC" transform="translate(198.9375,187.5)"/>
<path d="M0 0 C0.74185547 -0.02835938 1.48371094 -0.05671875 2.24804688 -0.0859375 C6.18819267 -0.09997186 8.05674607 0.24964807 11.42578125 2.46484375 C14.16115986 6.59181303 14.17987375 9.71496403 14.0625 14.5625 C14.09150391 15.76616211 14.09150391 15.76616211 14.12109375 16.99414062 C14.08862431 20.9067084 13.91788662 22.8857507 11.4609375 26.02734375 C7.35194527 28.02875211 3.95022857 28.0879103 -0.5625 28 C-1.3565625 28.01546875 -2.150625 28.0309375 -2.96875 28.046875 C-6.68124272 28.02212505 -9.1969517 27.66705416 -12.60546875 26.109375 C-15.65108633 22.04855155 -15.09919401 18.17536995 -14.875 13.25 C-14.85244141 12.31414062 -14.82988281 11.37828125 -14.80664062 10.4140625 C-14.74780595 8.10774326 -14.66567146 5.80469162 -14.5625 3.5 C-9.55205042 0.51437553 -5.67042206 -0.01980933 0 0 Z " fill="#D1B49F" transform="translate(372.5625,143.5)"/>
<path d="M0 0 C1.52947266 -0.0309375 1.52947266 -0.0309375 3.08984375 -0.0625 C4.06824219 -0.06765625 5.04664063 -0.0728125 6.0546875 -0.078125 C6.95429199 -0.0874707 7.85389648 -0.09681641 8.78076172 -0.10644531 C11.125 0.25 11.125 0.25 12.91699219 1.51708984 C14.37872602 3.6139748 14.51127211 4.76443828 14.5234375 7.3046875 C14.52923828 8.47451172 14.52923828 8.47451172 14.53515625 9.66796875 C14.52355469 10.47878906 14.51195312 11.28960937 14.5 12.125 C14.51160156 12.92808594 14.52320313 13.73117187 14.53515625 14.55859375 C14.51207211 19.22928489 14.24297408 22.51721413 11.125 26.25 C7.30459134 27.52346955 3.67035774 27.51233806 -0.3125 27.5625 C-1.07626953 27.59150391 -1.84003906 27.62050781 -2.62695312 27.65039062 C-6.38518156 27.69291192 -8.25591255 27.70869197 -11.34765625 25.41796875 C-14.00953763 21.63959492 -14.03652299 18.44191287 -14.0625 13.9375 C-14.07667969 12.82761719 -14.09085938 11.71773438 -14.10546875 10.57421875 C-13.33696472 -0.51047496 -9.69115762 0.04863818 0 0 Z " fill="#D77A64" transform="translate(529.875,353.75)"/>
<path d="M0 0 C0.85078125 -0.03738281 1.7015625 -0.07476562 2.578125 -0.11328125 C6.89118367 -0.17374469 9.03568328 -0.01962505 12.69921875 2.43359375 C15.13554631 6.15479995 15.20047572 8.39282616 15.0625 12.8125 C15.04058594 14.08996094 15.01867187 15.36742187 14.99609375 16.68359375 C14.63487569 20.27676287 14.16736354 23.10794879 12.625 26.375 C9.28532121 28.10755637 4.93873083 27.54409316 1.25 27.5625 C-0.03648437 27.57667969 -1.32296875 27.59085938 -2.6484375 27.60546875 C-6.375 27.375 -6.375 27.375 -12.375 25.375 C-12.375 17.455 -12.375 9.535 -12.375 1.375 C-8.23845828 -0.00384724 -4.33416089 0.07158524 0 0 Z " fill="#CFB29E" transform="translate(314.375,143.625)"/>
<path d="M0 0 C0.69029297 -0.01611328 1.38058594 -0.03222656 2.09179688 -0.04882812 C6.82905571 -0.05331842 10.00485553 0.90585328 14.0625 3.3125 C14.20796783 6.56202748 14.2966168 9.81071713 14.375 13.0625 C14.41689453 13.98289063 14.45878906 14.90328125 14.50195312 15.8515625 C14.62329342 22.54954683 14.62329342 22.54954683 12.14453125 25.921875 C7.83862155 27.86471892 4.10977169 27.89745039 -0.5625 27.8125 C-1.42101562 27.82796875 -2.27953125 27.8434375 -3.1640625 27.859375 C-3.9890625 27.85421875 -4.8140625 27.8490625 -5.6640625 27.84375 C-6.41252441 27.83923828 -7.16098633 27.83472656 -7.93212891 27.83007812 C-9.9375 27.3125 -9.9375 27.3125 -11.6862793 25.59082031 C-13.14854003 22.92822184 -13.28572501 21.34880078 -13.23046875 18.328125 C-13.22080078 17.39355469 -13.21113281 16.45898438 -13.20117188 15.49609375 C-13.17603516 14.52800781 -13.15089844 13.55992187 -13.125 12.5625 C-13.11146484 11.57894531 -13.09792969 10.59539062 -13.08398438 9.58203125 C-13.04868726 7.15829585 -12.99938054 4.73567855 -12.9375 2.3125 C-8.64703177 0.21326506 -4.69144488 -0.02178015 0 0 Z " fill="#D97B65" transform="translate(484.9375,143.6875)"/>
<path d="M0 0 C0.85464844 -0.00708984 1.70929688 -0.01417969 2.58984375 -0.02148438 C6.00620637 0.01315893 8.84596756 0.19858404 12.06640625 1.375 C14.51207068 4.89355809 14.03396832 8.70819082 13.9375 12.875 C13.94458984 13.73416016 13.95167969 14.59332031 13.95898438 15.47851562 C13.92224436 19.12142899 13.87980286 21.71886427 12.16015625 24.97265625 C8.6209579 28.09547833 4.61590231 27.60294252 0.125 27.625 C-1.18210937 27.63917969 -2.48921875 27.65335938 -3.8359375 27.66796875 C-7.26023013 27.45258147 -9.49399705 27.04182742 -12.5 25.4375 C-14.25752146 21.92245709 -13.76953401 17.93516748 -13.8125 14.0625 C-13.84150391 13.19882813 -13.87050781 12.33515625 -13.90039062 11.4453125 C-13.93789161 7.70675254 -13.90595095 5.17043609 -12.07421875 1.86328125 C-8.1193286 -0.32721178 -4.44461009 -0.10390868 0 0 Z " fill="#ABD8DF" transform="translate(315.5,98.5625)"/>
<path d="M0 0 C1.14450386 5.55901874 1.22075413 11.02822938 1.31640625 16.6796875 C1.33718735 17.7240799 1.35796844 18.76847229 1.37937927 19.84451294 C1.42257268 22.06182955 1.46362316 24.2791888 1.50268555 26.49658203 C1.56119383 29.8012252 1.62665467 33.10566955 1.69335938 36.41015625 C1.97435641 50.94125089 2.05641628 65.46642236 2 80 C-1.465 80.495 -1.465 80.495 -5 81 C-5.06949441 71.02957465 -5.12280843 61.05920688 -5.15543652 51.08858871 C-5.17109597 46.4588745 -5.19233932 41.82932592 -5.22631836 37.19970703 C-5.25890188 32.73229595 -5.27685091 28.26504424 -5.28463173 23.7975235 C-5.29017705 22.0926589 -5.30100568 20.38780308 -5.31719017 18.68300629 C-5.33895135 16.29596572 -5.34196752 13.90958466 -5.34057617 11.52246094 C-5.351362 10.81683517 -5.36214783 10.11120941 -5.3732605 9.38420105 C-5.35371478 6.28745797 -5.14115686 4.24971901 -3.60371399 1.52984619 C-2 0 -2 0 0 0 Z " fill="#ACDAE1" transform="translate(237,172)"/>
<path d="M0 0 C0.99 0 1.98 0 3 0 C4.33353877 8.00123264 4.06745317 15.90561925 4 24 C12.25 24 20.5 24 29 24 C28 30 28 30 27 31 C24.78144736 31.08783542 22.56011504 31.10694609 20.33984375 31.09765625 C19.34314415 31.09553383 19.34314415 31.09553383 18.3263092 31.09336853 C16.19666101 31.08775518 14.06711661 31.07520054 11.9375 31.0625 C10.49674631 31.05748671 9.05599097 31.05292351 7.61523438 31.04882812 C4.07678898 31.03778145 0.53840461 31.02050792 -3 31 C-3.40442591 9.62764593 -3.40442591 9.62764593 -1 1 C-0.67 0.67 -0.34 0.34 0 0 Z " fill="#AC918E" transform="translate(484,173)"/>
<path d="M0 0 C0.33 0 0.66 0 1 0 C1.33 12.87 1.66 25.74 2 39 C-3.28 37.02 -8.56 35.04 -14 33 C-15.98 32.34 -17.96 31.68 -20 31 C-20 29.35 -20 27.7 -20 26 C-18.82244141 25.51080078 -18.82244141 25.51080078 -17.62109375 25.01171875 C-16.57050781 24.57472656 -15.51992188 24.13773438 -14.4375 23.6875 C-13.40496094 23.25824219 -12.37242187 22.82898438 -11.30859375 22.38671875 C-7.86448805 20.94320337 -4.43243765 19.47104471 -1 18 C-0.67 12.06 -0.34 6.12 0 0 Z " fill="#525E6D" transform="translate(516,533)"/>
<path d="M0 0 C3.46895276 1.96071243 4.71249004 3.15543949 6 6.9375 C6 10.60292141 5.23178648 12.13056023 3 15 C-0.51253146 17.34168764 -1.86469356 17.49623677 -6 17 C-8.875 15.5625 -8.875 15.5625 -11 13 C-11.91245385 8.67576217 -11.75071492 5.23117246 -9.4375 1.4375 C-6.02983728 -0.57214724 -3.89581737 -0.54678139 0 0 Z " fill="#A1C3D5" transform="translate(274,235)"/>
<path d="M0 0 C1.2065625 0.0309375 1.2065625 0.0309375 2.4375 0.0625 C4.02995395 3.58077628 4.68011382 6.28947352 4.6328125 10.14453125 C4.62314453 11.54155273 4.62314453 11.54155273 4.61328125 12.96679688 C4.59652344 13.92650391 4.57976563 14.88621094 4.5625 15.875 C4.55347656 16.85404297 4.54445313 17.83308594 4.53515625 18.84179688 C4.51167182 21.24895061 4.4788284 23.65559743 4.4375 26.0625 C1.7975 26.0625 -0.8425 26.0625 -3.5625 26.0625 C-3.59136751 21.91668113 -3.60925327 17.77088784 -3.625 13.625 C-3.63337891 12.44099609 -3.64175781 11.25699219 -3.65039062 10.03710938 C-3.65361328 8.91240234 -3.65683594 7.78769531 -3.66015625 6.62890625 C-3.66539307 5.58677979 -3.67062988 4.54465332 -3.67602539 3.47094727 C-3.51840588 0.12704092 -3.3607265 0.08196894 0 0 Z " fill="#AC918F" transform="translate(529.5625,217.9375)"/>
<path d="M0 0 C10.56 0 21.12 0 32 0 C32 1.65 32 3.3 32 5 C31 6 31 6 28.04077148 6.11352539 C26.74727783 6.10828857 25.45378418 6.10305176 24.12109375 6.09765625 C23.09110008 6.09553383 23.09110008 6.09553383 22.04029846 6.09336853 C19.83932199 6.08775479 17.63844591 6.07520007 15.4375 6.0625 C13.94856917 6.05748676 12.45963676 6.05292355 10.97070312 6.04882812 C7.31376925 6.03778093 3.65689442 6.02050713 0 6 C0 4.02 0 2.04 0 0 Z " fill="#AC8180" transform="translate(480,364)"/>
<path d="M0 0 C3 0.5 3 0.5 5.375 2.125 C7 4.5 7 4.5 7.5625 7.5 C7 10.5 7 10.5 4.875 12.875 C1.48771221 14.78955397 -0.17663624 15.23213349 -4 14.5 C-6.4375 12.3125 -6.4375 12.3125 -8 9.5 C-8 6.22385583 -7.23771094 4.82575202 -5.3125 2.1875 C-3 0.5 -3 0.5 0 0 Z " fill="#9FC0D2" transform="translate(200,234.5)"/>
<path d="M0 0 C2.375 2.125 2.375 2.125 4 5 C4.08182687 9.00951663 3.47557572 10.48479297 0.75 13.4375 C-2 15 -2 15 -4.625 15 C-7.605893 13.74488716 -8.60952448 12.93544833 -10 10 C-9.93351603 6.21041394 -9.83225402 3.92142409 -7.25 1.0625 C-4.47708502 -0.24693207 -3.02480283 -0.60496057 0 0 Z " fill="#A0C1D3" transform="translate(347,235)"/>
<path d="M0 0 C1.18613892 0.07069702 1.18613892 0.07069702 2.39624023 0.14282227 C3.67724609 0.21533203 3.67724609 0.21533203 4.98413086 0.28930664 C5.88196289 0.34538086 6.77979492 0.40145508 7.70483398 0.45922852 C8.6065332 0.51143555 9.50823242 0.56364258 10.43725586 0.61743164 C12.67259948 0.74753101 14.90754288 0.88250788 17.14233398 1.02172852 C17.80233398 2.34172852 18.46233398 3.66172852 19.14233398 5.02172852 C18.15233398 6.50672852 18.15233398 6.50672852 17.14233398 8.02172852 C15.20288086 8.39404297 15.20288086 8.39404297 12.86108398 8.38500977 C12.01932617 8.38436523 11.17756836 8.3837207 10.31030273 8.38305664 C9.42987305 8.36694336 8.54944336 8.35083008 7.64233398 8.33422852 C6.32168945 8.3390625 6.32168945 8.3390625 4.97436523 8.34399414 C-1.5906957 8.28869883 -1.5906957 8.28869883 -3.85766602 6.02172852 C-3.12777041 0.03658451 -3.12777041 0.03658451 0 0 Z " fill="#7AB0DB" transform="translate(338.857666015625,314.978271484375)"/>
<path d="M0 0 C2.375 1.125 2.375 1.125 4 3 C4.66430408 6.81974849 4.28007433 8.52283633 2.3125 11.875 C0 14 0 14 -2.5 14.5625 C-5.87646044 13.8027964 -7.02929117 12.84657942 -9 10 C-9.42841969 6.51143969 -9.66830867 4.15097604 -7.875 1.0625 C-5.09808875 -0.51108304 -3.13770673 -0.38420899 0 0 Z " fill="#A7D4DB" transform="translate(318,236)"/>
<path d="M0 0 C3.375 0.9375 3.375 0.9375 5.375 3.9375 C5.8125 6.3125 5.8125 6.3125 5.375 8.9375 C3.02358817 11.96074378 1.54599234 13.68657307 -2.25 14.5 C-4.625 13.9375 -4.625 13.9375 -6.4375 12.3125 C-7.97878195 9.2299361 -8.12193476 7.34505267 -7.625 3.9375 C-5.31085172 0.32742869 -4.32918251 -0.07464108 0 0 Z " fill="#B39693" transform="translate(405.625,151.0625)"/>
<path d="M0 0 C0.66 0.66 1.32 1.32 2 2 C1.88489209 9.13669065 1.88489209 9.13669065 -1.5625 12.5 C-2.366875 12.995 -3.17125 13.49 -4 14 C-7.34861059 12.61436803 -9.29014301 11.23972904 -11 8 C-10.87230149 4.87138639 -10.44822217 2.77193818 -8.875 0.0625 C-5.80365094 -1.67793113 -3.31631617 -0.78385655 0 0 Z " fill="#C1BBBB" transform="translate(276,128)"/>
<path d="M0 0 C7.26 0 14.52 0 22 0 C22 1.98 22 3.96 22 6 C14.74 6 7.48 6 0 6 C0 4.02 0 2.04 0 0 Z " fill="#BBB6B6" transform="translate(333,199)"/>
<path d="M0 0 C1.58206057 0.00667536 3.16410534 0.0186375 4.74609375 0.03515625 C5.55240234 0.03966797 6.35871094 0.04417969 7.18945312 0.04882812 C9.18753131 0.06065107 11.18557158 0.07858711 13.18359375 0.09765625 C13.80859375 2.47265625 13.80859375 2.47265625 14.18359375 5.09765625 C11.62410376 7.65714624 9.9115218 7.35834356 6.41796875 7.37109375 C5.680625 7.36335938 4.94328125 7.355625 4.18359375 7.34765625 C3.07757813 7.35925781 3.07757813 7.35925781 1.94921875 7.37109375 C-3.56308665 7.35097585 -3.56308665 7.35097585 -5.81640625 5.09765625 C-5.13297759 0.58702712 -4.75183137 0.12159241 0 0 Z " fill="#C0BABA" transform="translate(400.81640625,108.90234375)"/>
<path d="M0 0 C6.6 0 13.2 0 20 0 C20 0.33 20 0.66 20 1 C17.69 1 15.38 1 13 1 C13 6.94 13 12.88 13 19 C11.02 19 9.04 19 7 19 C7 13.06 7 7.12 7 1 C4.69 1 2.38 1 0 1 C0 0.67 0 0.34 0 0 Z " fill="#785B5A" transform="translate(419,379)"/>
<path d="M0 0 C2 2 2 2 2.4375 4.875 C2 8 2 8 -0.1875 10.4375 C-3 12 -3 12 -5.625 12 C-8.53961599 10.77279327 -9.58572328 9.82855344 -11 7 C-10.92290543 3.83912282 -10.42956578 2.47729531 -8.3125 0.125 C-5.15920352 -1.40903612 -3.3226672 -0.93901464 0 0 Z " fill="#B08483" transform="translate(569,314)"/>
<path d="M0 0 C2 2 2 2 2.4375 4.875 C2 8 2 8 -0.1875 10.4375 C-3 12 -3 12 -5.6875 11.9375 C-8 11 -8 11 -10 8 C-10.32443143 4.88545823 -10.45929053 2.83752979 -8.9375 0.0625 C-5.81651045 -1.6490104 -3.35466116 -0.79291991 0 0 Z " fill="#C4BEBD" transform="translate(274,314)"/>
<path d="M0 0 C2.14762184 3.22143276 2.561068 4.2595467 2 8 C0.4375 9.875 0.4375 9.875 -2 11 C-5.625 10.875 -5.625 10.875 -9 10 C-11 7 -11 7 -10.875 4.5 C-8.90099804 -1.1400056 -5.38703879 -1.63953354 0 0 Z " fill="#AE9290" transform="translate(532,153)"/>
<path d="M0 0 C1.670625 0.37125 1.670625 0.37125 3.375 0.75 C4.77435013 3.54870027 4.62765405 5.65498792 4.375 8.75 C3.1875 10.625 3.1875 10.625 1.375 11.75 C-1.9475955 12.34636329 -3.19955503 12.04109393 -6 10.125 C-7.625 7.75 -7.625 7.75 -7.5625 4.625 C-6.12114771 0.20485296 -4.53524987 -0.31277585 0 0 Z " fill="#B49793" transform="translate(565.625,235.25)"/>
<path d="M0 0 C0.66 0 1.32 0 2 0 C2.92553743 3.13850064 3.11664647 5.93680778 3.09765625 9.203125 C3.09443359 10.1828125 3.09121094 11.1625 3.08789062 12.171875 C3.07951172 13.18765625 3.07113281 14.2034375 3.0625 15.25 C3.05798828 16.28125 3.05347656 17.3125 3.04882812 18.375 C3.03706088 20.91672573 3.02062011 23.45833319 3 26 C1.35 26 -0.3 26 -2 26 C-2.02683987 23.02077407 -2.04676037 20.04178705 -2.0625 17.0625 C-2.07087891 16.21236328 -2.07925781 15.36222656 -2.08789062 14.48632812 C-2.09111328 13.67744141 -2.09433594 12.86855469 -2.09765625 12.03515625 C-2.10289307 11.2862915 -2.10812988 10.53742676 -2.11352539 9.76586914 C-2 8 -2 8 -1 7 C-0.63239269 4.67182036 -0.29758419 2.3381615 0 0 Z " fill="#BFBABA" transform="translate(435,128)"/>
<path d="M0 0 C-0.50603992 2.16874252 -0.99983813 3.99967627 -2 6 C-4.47923801 6.02685095 -6.9581884 6.04676547 -9.4375 6.0625 C-10.14455078 6.07087891 -10.85160156 6.07925781 -11.58007812 6.08789062 C-13.38693559 6.09653588 -15.19387603 6.05220011 -17 6 C-18 5 -18 5 -18.0625 2.4375 C-18.041875 1.633125 -18.02125 0.82875 -18 0 C-3.64556962 -1.82278481 -3.64556962 -1.82278481 0 0 Z " fill="#74A5CC" transform="translate(410,364)"/>
<path d="M0 0 C5.94 0 11.88 0 18 0 C18 1.98 18 3.96 18 6 C12.06 6 6.12 6 0 6 C0 4.02 0 2.04 0 0 Z " fill="#BFB9B9" transform="translate(334,154)"/>
<path d="M0 0 C1.0725 0.00515625 2.145 0.0103125 3.25 0.015625 C4.85875 0.00789063 4.85875 0.00789063 6.5 0 C9.25 0.265625 9.25 0.265625 11.25 2.265625 C11.125 4.265625 11.125 4.265625 10.25 6.265625 C7.0263678 8.40985094 4.77427918 8.38724068 1 7.890625 C0.10796875 7.77976562 -0.7840625 7.66890625 -1.703125 7.5546875 C-2.37859375 7.45929688 -3.0540625 7.36390625 -3.75 7.265625 C-4.375 4.890625 -4.375 4.890625 -4.75 2.265625 C-2.75 0.265625 -2.75 0.265625 0 0 Z " fill="#AC8181" transform="translate(453.75,407.734375)"/>
<path d="M0 0 C3.5625 0.1875 3.5625 0.1875 5.5625 2.1875 C5.10635965 9.37171053 5.10635965 9.37171053 2.5625 13.1875 C0.75 13 0.75 13 -1.4375 12.1875 C-4.34910209 8.54799738 -4.85585221 5.7893743 -4.4375 1.1875 C-3.4375 0.1875 -3.4375 0.1875 0 0 Z " fill="#B29592" transform="translate(484.4375,123.8125)"/>
<path d="M0 0 C1.17433594 0.01417969 2.34867187 0.02835937 3.55859375 0.04296875 C5.32396484 0.05263672 5.32396484 0.05263672 7.125 0.0625 C9.99609375 0.23046875 9.99609375 0.23046875 10.99609375 1.23046875 C10.99609375 2.88046875 10.99609375 4.53046875 10.99609375 6.23046875 C6.04609375 6.56046875 1.09609375 6.89046875 -4.00390625 7.23046875 C-4.33390625 5.58046875 -4.66390625 3.93046875 -5.00390625 2.23046875 C-3.00390625 0.23046875 -3.00390625 0.23046875 0 0 Z " fill="#C5CDD5" transform="translate(341.00390625,108.76953125)"/>
<path d="M0 0 C1.1446875 0.3403125 1.1446875 0.3403125 2.3125 0.6875 C3.59567892 4.53703676 3.37893637 7.63488135 3.3125 11.6875 C0.3425 11.6875 -2.6275 11.6875 -5.6875 11.6875 C-6.05712751 3.18606734 -6.05712751 3.18606734 -4.34375 0.875 C-2.6875 -0.3125 -2.6875 -0.3125 0 0 Z " fill="#D0D8E0" transform="translate(272.6875,152.3125)"/>
<path d="M0 0 C2.64 0.33 5.28 0.66 8 1 C8 5.62 8 10.24 8 15 C6.35 15 4.7 15 3 15 C3 10.38 3 5.76 3 1 C2.01 0.67 1.02 0.34 0 0 Z " fill="#BAB6B7" transform="translate(367,125)"/>
<path d="M0 0 C1.125 5.75 1.125 5.75 0 8 C-5.41538462 8.36923077 -5.41538462 8.36923077 -8.375 6.5 C-8.91125 6.005 -9.4475 5.51 -10 5 C-9.625 3.0625 -9.625 3.0625 -9 1 C-6.04335481 -0.4783226 -3.25770263 -0.06032783 0 0 Z " fill="#9EBED0" transform="translate(376,316)"/>
<path d="M0 0 C0.33 0 0.66 0 1 0 C1 2.97 1 5.94 1 9 C4.63 9 8.26 9 12 9 C12.33 10.32 12.66 11.64 13 13 C9.37 13 5.74 13 2 13 C1.67 15.64 1.34 18.28 1 21 C0.67 21 0.34 21 0 21 C0 14.07 0 7.14 0 0 Z " fill="#81949C" transform="translate(284,191)"/>
<path d="M0 0 C4.29 0 8.58 0 13 0 C13 1.65 13 3.3 13 5 C8.71 5 4.42 5 0 5 C0 3.35 0 1.7 0 0 Z " fill="#BA8A88" transform="translate(481,365)"/>
<path d="M0 0 C3 1 3 1 5 4 C4.70187643 8.09919904 4.12632393 11.45612679 2 15 C1.34 15 0.68 15 0 15 C0 10.05 0 5.1 0 0 Z " fill="#C5BEBE" transform="translate(371,172)"/>
<path d="M0 0 C0.33 0 0.66 0 1 0 C1.66 2.64 2.32 5.28 3 8 C4.32 6.68 5.64 5.36 7 4 C5.9318153 9.11365014 4.76892524 14.07227969 3 19 C2.34 19 1.68 19 1 19 C0.67 12.73 0.34 6.46 0 0 Z " fill="#671D18" transform="translate(462,290)"/>
<path d="M0 0 C2.125 0.375 2.125 0.375 4 1 C4.8125 2.625 4.8125 2.625 5 5 C3.53181864 7.24609835 1.84147142 9.02378677 0 11 C-2 9 -2 9 -2.25 5.5 C-2 2 -2 2 0 0 Z " fill="#B39693" transform="translate(483,383)"/>
<path d="M0 0 C0.33 0 0.66 0 1 0 C1.33 3.63 1.66 7.26 2 11 C1.34 10.67 0.68 10.34 0 10 C-0.99 13.3 -1.98 16.6 -3 20 C-4.16383641 15.34465435 -3.2861296 12.23268189 -2.0625 7.75 C-1.86720703 7.00492188 -1.67191406 6.25984375 -1.47070312 5.4921875 C-0.98895802 3.65920614 -0.49560775 1.82928182 0 0 Z " fill="#79231D" transform="translate(436,218)"/>
<path d="M0 0 C3.63 0 7.26 0 11 0 C11 0.99 11 1.98 11 3 C7.37 3 3.74 3 0 3 C0 2.01 0 1.02 0 0 Z " fill="#B1ACAE" transform="translate(286,201)"/>
<path d="M0 0 C4.95 0 9.9 0 15 0 C14.01 0.33 13.02 0.66 12 1 C11.67 3.97 11.34 6.94 11 10 C10.67 10 10.34 10 10 10 C10 7.36 10 4.72 10 2 C8.3603125 2.061875 8.3603125 2.061875 6.6875 2.125 C3 2 3 2 0 0 Z " fill="#6A4645" transform="translate(477,171)"/>
<path d="M0 0 C1.98 0 3.96 0 6 0 C6 1.65 6 3.3 6 5 C4.02 5 2.04 5 0 5 C0 3.35 0 1.7 0 0 Z " fill="#A1C2D4" transform="translate(392,364)"/>
<path d="M0 0 C1.32 0 2.64 0 4 0 C4 2.31 4 4.62 4 7 C2.35 7 0.7 7 -1 7 C-0.67 4.69 -0.34 2.38 0 0 Z " fill="#817A7C" transform="translate(427,391)"/>
</svg>
